<mxfile host="app.diagrams.net" modified="2023-01-12T10:22:51.741Z" agent="5.0 (Windows)" version="20.8.4" etag="MCIityASeBKzFh2hE89Z" type="github">
  <diagram id="qTviWWsmxDnh-r_rgmAz" name="第 1 页">
    <mxGraphModel dx="1379" dy="863" grid="1" gridSize="10" guides="1" tooltips="1" connect="1" arrows="1" fold="1" page="1" pageScale="1" pageWidth="827" pageHeight="1169" math="0" shadow="0">
      <root>
        <mxCell id="0" />
        <mxCell id="1" parent="0" />
        <mxCell id="BofSnAzxSbXl51jhhJ9m-21" style="edgeStyle=orthogonalEdgeStyle;rounded=0;orthogonalLoop=1;jettySize=auto;html=1;entryX=0;entryY=0.5;entryDx=0;entryDy=0;fontFamily=Helvetica;fontSize=24;fontColor=default;" edge="1" parent="1" source="BofSnAzxSbXl51jhhJ9m-8" target="BofSnAzxSbXl51jhhJ9m-20">
          <mxGeometry relative="1" as="geometry" />
        </mxCell>
        <mxCell id="BofSnAzxSbXl51jhhJ9m-8" value="执行Insert" style="rounded=1;whiteSpace=wrap;html=1;strokeWidth=2;fillWeight=4;hachureGap=8;hachureAngle=45;fillColor=#dae8fc;sketch=1;glass=0;strokeColor=#6c8ebf;fontSize=24;fontStyle=1" vertex="1" parent="1">
          <mxGeometry x="50" y="190" width="120" height="60" as="geometry" />
        </mxCell>
        <mxCell id="BofSnAzxSbXl51jhhJ9m-27" style="edgeStyle=orthogonalEdgeStyle;rounded=0;orthogonalLoop=1;jettySize=auto;html=1;fontFamily=Helvetica;fontSize=24;fontColor=default;entryX=0.5;entryY=0;entryDx=0;entryDy=0;" edge="1" parent="1" source="BofSnAzxSbXl51jhhJ9m-20" target="BofSnAzxSbXl51jhhJ9m-28">
          <mxGeometry relative="1" as="geometry">
            <mxPoint x="310" y="300" as="targetPoint" />
          </mxGeometry>
        </mxCell>
        <mxCell id="BofSnAzxSbXl51jhhJ9m-30" style="edgeStyle=orthogonalEdgeStyle;rounded=0;orthogonalLoop=1;jettySize=auto;html=1;fontFamily=Helvetica;fontSize=24;fontColor=default;" edge="1" parent="1" source="BofSnAzxSbXl51jhhJ9m-20" target="BofSnAzxSbXl51jhhJ9m-26">
          <mxGeometry relative="1" as="geometry" />
        </mxCell>
        <mxCell id="BofSnAzxSbXl51jhhJ9m-20" value="隐式锁" style="rounded=1;whiteSpace=wrap;html=1;strokeWidth=2;fillWeight=4;hachureGap=8;hachureAngle=45;fillColor=#dae8fc;sketch=1;glass=0;strokeColor=#6c8ebf;fontSize=24;fontStyle=1;fontFamily=Helvetica;fontColor=default;" vertex="1" parent="1">
          <mxGeometry x="270" y="190" width="120" height="60" as="geometry" />
        </mxCell>
        <mxCell id="BofSnAzxSbXl51jhhJ9m-26" value="trx_id实现" style="text;html=1;align=center;verticalAlign=middle;resizable=0;points=[];autosize=1;strokeColor=none;fillColor=none;fontSize=24;fontFamily=Helvetica;fontColor=default;" vertex="1" parent="1">
          <mxGeometry x="265" y="90" width="130" height="40" as="geometry" />
        </mxCell>
        <mxCell id="BofSnAzxSbXl51jhhJ9m-37" value="" style="edgeStyle=orthogonalEdgeStyle;rounded=0;orthogonalLoop=1;jettySize=auto;html=1;fontFamily=Helvetica;fontSize=24;fontColor=default;" edge="1" parent="1" source="BofSnAzxSbXl51jhhJ9m-28" target="BofSnAzxSbXl51jhhJ9m-36">
          <mxGeometry relative="1" as="geometry" />
        </mxCell>
        <mxCell id="BofSnAzxSbXl51jhhJ9m-42" style="edgeStyle=orthogonalEdgeStyle;rounded=0;orthogonalLoop=1;jettySize=auto;html=1;entryX=0;entryY=0.5;entryDx=0;entryDy=0;fontFamily=Helvetica;fontSize=24;fontColor=default;" edge="1" parent="1" source="BofSnAzxSbXl51jhhJ9m-28" target="BofSnAzxSbXl51jhhJ9m-41">
          <mxGeometry relative="1" as="geometry" />
        </mxCell>
        <mxCell id="BofSnAzxSbXl51jhhJ9m-60" style="edgeStyle=orthogonalEdgeStyle;rounded=0;orthogonalLoop=1;jettySize=auto;html=1;exitX=0.5;exitY=1;exitDx=0;exitDy=0;entryX=0;entryY=0.5;entryDx=0;entryDy=0;fontFamily=Helvetica;fontSize=24;fontColor=default;" edge="1" parent="1" source="BofSnAzxSbXl51jhhJ9m-28" target="BofSnAzxSbXl51jhhJ9m-57">
          <mxGeometry relative="1" as="geometry" />
        </mxCell>
        <mxCell id="BofSnAzxSbXl51jhhJ9m-28" value="显示锁" style="rhombus;whiteSpace=wrap;html=1;rounded=1;glass=0;sketch=1;fillWeight=4;hachureGap=8;hachureAngle=45;strokeColor=#6c8ebf;strokeWidth=2;fontFamily=Helvetica;fontSize=24;fontColor=default;fillColor=#dae8fc;" vertex="1" parent="1">
          <mxGeometry x="275" y="320" width="110" height="100" as="geometry" />
        </mxCell>
        <mxCell id="BofSnAzxSbXl51jhhJ9m-34" value="冲突" style="text;html=1;align=center;verticalAlign=middle;resizable=0;points=[];autosize=1;strokeColor=none;fillColor=none;fontSize=24;fontFamily=Helvetica;fontColor=default;" vertex="1" parent="1">
          <mxGeometry x="260" y="260" width="70" height="40" as="geometry" />
        </mxCell>
        <mxCell id="BofSnAzxSbXl51jhhJ9m-35" value="不加锁" style="text;html=1;align=center;verticalAlign=middle;resizable=0;points=[];autosize=1;strokeColor=none;fillColor=none;fontSize=24;fontFamily=Helvetica;fontColor=default;" vertex="1" parent="1">
          <mxGeometry x="170" y="180" width="100" height="40" as="geometry" />
        </mxCell>
        <mxCell id="BofSnAzxSbXl51jhhJ9m-40" value="" style="edgeStyle=orthogonalEdgeStyle;rounded=0;orthogonalLoop=1;jettySize=auto;html=1;fontFamily=Helvetica;fontSize=24;fontColor=default;" edge="1" parent="1" source="BofSnAzxSbXl51jhhJ9m-36">
          <mxGeometry relative="1" as="geometry">
            <mxPoint x="610" y="370" as="targetPoint" />
          </mxGeometry>
        </mxCell>
        <mxCell id="BofSnAzxSbXl51jhhJ9m-45" value="" style="edgeStyle=orthogonalEdgeStyle;rounded=0;orthogonalLoop=1;jettySize=auto;html=1;fontFamily=Helvetica;fontSize=24;fontColor=default;" edge="1" parent="1" source="BofSnAzxSbXl51jhhJ9m-36" target="BofSnAzxSbXl51jhhJ9m-44">
          <mxGeometry relative="1" as="geometry" />
        </mxCell>
        <mxCell id="BofSnAzxSbXl51jhhJ9m-36" value="有间隙锁&lt;span style=&quot;white-space: pre;&quot;&gt;	&lt;/span&gt;" style="whiteSpace=wrap;html=1;fontSize=24;fillColor=#dae8fc;strokeColor=#6c8ebf;rounded=1;glass=0;sketch=1;fillWeight=4;hachureGap=8;hachureAngle=45;strokeWidth=2;" vertex="1" parent="1">
          <mxGeometry x="460" y="340" width="120" height="60" as="geometry" />
        </mxCell>
        <mxCell id="BofSnAzxSbXl51jhhJ9m-46" style="edgeStyle=orthogonalEdgeStyle;rounded=0;orthogonalLoop=1;jettySize=auto;html=1;entryX=0;entryY=0.5;entryDx=0;entryDy=0;fontFamily=Helvetica;fontSize=24;fontColor=default;" edge="1" parent="1" source="BofSnAzxSbXl51jhhJ9m-41" target="BofSnAzxSbXl51jhhJ9m-43">
          <mxGeometry relative="1" as="geometry" />
        </mxCell>
        <mxCell id="BofSnAzxSbXl51jhhJ9m-41" value="唯一键内容冲突" style="whiteSpace=wrap;html=1;fontSize=24;fillColor=#dae8fc;strokeColor=#6c8ebf;rounded=1;glass=0;sketch=1;fillWeight=4;hachureGap=8;hachureAngle=45;strokeWidth=2;" vertex="1" parent="1">
          <mxGeometry x="460" y="430" width="120" height="60" as="geometry" />
        </mxCell>
        <mxCell id="BofSnAzxSbXl51jhhJ9m-48" value="" style="edgeStyle=orthogonalEdgeStyle;rounded=0;orthogonalLoop=1;jettySize=auto;html=1;fontFamily=Helvetica;fontSize=24;fontColor=default;" edge="1" parent="1" source="BofSnAzxSbXl51jhhJ9m-43" target="BofSnAzxSbXl51jhhJ9m-47">
          <mxGeometry relative="1" as="geometry" />
        </mxCell>
        <mxCell id="BofSnAzxSbXl51jhhJ9m-43" value="S型锁" style="whiteSpace=wrap;html=1;fontSize=24;fillColor=#dae8fc;strokeColor=#6c8ebf;rounded=1;glass=0;sketch=1;fillWeight=4;hachureGap=8;hachureAngle=45;strokeWidth=2;fontFamily=Helvetica;fontColor=default;" vertex="1" parent="1">
          <mxGeometry x="660" y="430" width="120" height="60" as="geometry" />
        </mxCell>
        <mxCell id="BofSnAzxSbXl51jhhJ9m-44" value="插入意向锁" style="whiteSpace=wrap;html=1;fontSize=24;fillColor=#dae8fc;strokeColor=#6c8ebf;rounded=1;glass=0;sketch=1;fillWeight=4;hachureGap=8;hachureAngle=45;strokeWidth=2;" vertex="1" parent="1">
          <mxGeometry x="660" y="340" width="120" height="60" as="geometry" />
        </mxCell>
        <mxCell id="BofSnAzxSbXl51jhhJ9m-51" value="" style="edgeStyle=orthogonalEdgeStyle;rounded=0;orthogonalLoop=1;jettySize=auto;html=1;fontFamily=Helvetica;fontSize=24;fontColor=default;" edge="1" parent="1" source="BofSnAzxSbXl51jhhJ9m-47" target="BofSnAzxSbXl51jhhJ9m-50">
          <mxGeometry relative="1" as="geometry">
            <Array as="points">
              <mxPoint x="1065" y="566" />
              <mxPoint x="920" y="566" />
            </Array>
          </mxGeometry>
        </mxCell>
        <mxCell id="BofSnAzxSbXl51jhhJ9m-53" style="edgeStyle=orthogonalEdgeStyle;rounded=0;orthogonalLoop=1;jettySize=auto;html=1;fontFamily=Helvetica;fontSize=24;fontColor=default;" edge="1" parent="1" source="BofSnAzxSbXl51jhhJ9m-47">
          <mxGeometry relative="1" as="geometry">
            <mxPoint x="1190" y="600" as="targetPoint" />
          </mxGeometry>
        </mxCell>
        <mxCell id="BofSnAzxSbXl51jhhJ9m-47" value="唯一键是主键索引还是二级索引" style="rhombus;whiteSpace=wrap;html=1;fontSize=24;fillColor=#dae8fc;strokeColor=#6c8ebf;rounded=1;glass=0;sketch=1;fillWeight=4;hachureGap=8;hachureAngle=45;strokeWidth=2;" vertex="1" parent="1">
          <mxGeometry x="900" y="387.5" width="330" height="145" as="geometry" />
        </mxCell>
        <mxCell id="BofSnAzxSbXl51jhhJ9m-49" value="具体类型" style="text;html=1;align=center;verticalAlign=middle;resizable=0;points=[];autosize=1;strokeColor=none;fillColor=none;fontSize=24;fontFamily=Helvetica;fontColor=default;" vertex="1" parent="1">
          <mxGeometry x="770" y="420" width="120" height="40" as="geometry" />
        </mxCell>
        <mxCell id="BofSnAzxSbXl51jhhJ9m-50" value="S型记录锁" style="whiteSpace=wrap;html=1;fontSize=24;fillColor=#dae8fc;strokeColor=#6c8ebf;rounded=1;glass=0;sketch=1;fillWeight=4;hachureGap=8;hachureAngle=45;strokeWidth=2;" vertex="1" parent="1">
          <mxGeometry x="860" y="600" width="120" height="60" as="geometry" />
        </mxCell>
        <mxCell id="BofSnAzxSbXl51jhhJ9m-52" value="S型Next-Key" style="whiteSpace=wrap;html=1;rounded=1;glass=0;sketch=1;fillWeight=4;hachureGap=8;hachureAngle=45;strokeColor=#6c8ebf;strokeWidth=2;fontFamily=Helvetica;fontSize=24;fontColor=default;fillColor=#dae8fc;" vertex="1" parent="1">
          <mxGeometry x="1130" y="600" width="120" height="60" as="geometry" />
        </mxCell>
        <mxCell id="BofSnAzxSbXl51jhhJ9m-54" value="主键索引" style="text;html=1;align=center;verticalAlign=middle;resizable=0;points=[];autosize=1;strokeColor=none;fillColor=none;fontSize=24;fontFamily=Helvetica;fontColor=default;" vertex="1" parent="1">
          <mxGeometry x="880" y="520" width="120" height="40" as="geometry" />
        </mxCell>
        <mxCell id="BofSnAzxSbXl51jhhJ9m-55" value="二级索引" style="text;html=1;align=center;verticalAlign=middle;resizable=0;points=[];autosize=1;strokeColor=none;fillColor=none;fontSize=24;fontFamily=Helvetica;fontColor=default;" vertex="1" parent="1">
          <mxGeometry x="1090" y="520" width="120" height="40" as="geometry" />
        </mxCell>
        <mxCell id="BofSnAzxSbXl51jhhJ9m-59" value="" style="edgeStyle=orthogonalEdgeStyle;rounded=0;orthogonalLoop=1;jettySize=auto;html=1;fontFamily=Helvetica;fontSize=24;fontColor=default;" edge="1" parent="1" source="BofSnAzxSbXl51jhhJ9m-57" target="BofSnAzxSbXl51jhhJ9m-58">
          <mxGeometry relative="1" as="geometry" />
        </mxCell>
        <mxCell id="BofSnAzxSbXl51jhhJ9m-57" value="成功插入" style="whiteSpace=wrap;html=1;rounded=1;glass=0;sketch=1;fillWeight=4;hachureGap=8;hachureAngle=45;strokeColor=#6c8ebf;strokeWidth=2;fontFamily=Helvetica;fontSize=24;fontColor=default;fillColor=#dae8fc;" vertex="1" parent="1">
          <mxGeometry x="460" y="532.5" width="120" height="60" as="geometry" />
        </mxCell>
        <mxCell id="BofSnAzxSbXl51jhhJ9m-58" value="X型记录锁" style="whiteSpace=wrap;html=1;fontSize=24;fillColor=#dae8fc;strokeColor=#6c8ebf;rounded=1;glass=0;sketch=1;fillWeight=4;hachureGap=8;hachureAngle=45;strokeWidth=2;" vertex="1" parent="1">
          <mxGeometry x="660" y="532.5" width="120" height="60" as="geometry" />
        </mxCell>
      </root>
    </mxGraphModel>
  </diagram>
</mxfile>
